# xmcd CD database file
#
# Track frame offsets:
#	150
#	20696
#	35380
#	57006
#	73806
#	94265
#	117339
#	140461
#	163447
#	185291
#
# Disc length: 2718 seconds
#
# Revision: 0
# Processed by: cddbd v1.5.1PL0 Copyright (c) Steve Scherf et al.
# Submitted via: CDex 1.51
#
DISCID=8e0a9c0a
DTITLE=Jacintha - The Girl From Bossa Nova
DYEAR=2004
DGENRE=Jazz
TTITLE0=O Ganso
TTITLE1=So Danco Samba
TTITLE2=Dindi
TTITLE3=Once I Loved
TTITLE4=Desafinado
TTITLE5=So Nice
TTITLE6=Wave
TTITLE7=How Insensitive
TTITLE8=Corcovado
TTITLE9=Waters of March
EXTD=YEAR: 2004
EXTT0=
EXTT1=
EXTT2=
EXTT3=
EXTT4=
EXTT5=
EXTT6=
EXTT7=
EXTT8=
EXTT9=
PLAYORDER=
